<?xml version="1.0" encoding="utf-8"?>
<!-- Generator: Adobe Illustrator 22.0.1, SVG Export Plug-In . SVG Version: 6.00 Build 0)  -->
<svg version="1.1" id="Layer_1" xmlns="http://www.w3.org/2000/svg" xmlns:xlink="http://www.w3.org/1999/xlink" x="0px" y="0px"
	 viewBox="0 0 97.3 54.8" style="enable-background:new 0 0 97.3 54.8;" xml:space="preserve">
<path d="M97.2,13.8c0-0.1,0-0.1,0-0.2C96.7,4.3,71.8,0,48.6,0C25.2,0,0,4.3,0,13.9c0,0.5,0.1,1,0.2,1.5c0,0.2,0,0.4,0.1,0.5
	l11.4,26.5c1.9,8.1,19.5,12.4,36.9,12.4c17.4,0,35-4.3,36.9-12.4l11-25.7c0.5-0.8,0.7-1.6,0.8-2.5c0-0.1,0-0.1,0-0.2
	c0,0,0-0.1,0-0.2C97.2,13.9,97.2,13.8,97.2,13.8z M41.7,43.4c-0.9,0.2-1.8-0.2-2.3-1c-1-1.4-1.5-3.6-0.7-4.8
	c0.4-0.5,2.8,0.6,3.6,1.3c0.5,0.3,0.9,0.9,1,1.6C43.6,41.8,42.9,43.1,41.7,43.4z M43,27.3c1.8-0.8,2.7,4.4,2.9,5.7
	c0.2,1.3-0.4,2.5-1.5,3C40.6,37.7,38.2,29.4,43,27.3z M55.3,48.3c-1.7,0.7-3.2,0.7-4.5,0.3c-1,0.9-2.3,1.6-4.2,1.8
	c-1.7,0.2-3.3-1.1-3.6-2.6c-0.4-1.8,0-2.7,1.5-3.6c1.7-1.5,1-3.2,1.1-4.8c0.1-1.3,1-2.5,2.3-2.8c1.4-0.3,2.7,0.3,3.4,1.5
	c0.8,1.5,1.1,3.2,3.2,3.7c1.7,0.2,2.5,0.7,2.9,2.6C57.7,45.8,56.9,47.7,55.3,48.3z M48.2,26.1c5.1-0.3,6.8,8.1,2.7,8.4
	c-1.2,0.1-2.3-0.8-2.7-2C47.7,31.3,46.2,26.2,48.2,26.1z M58.1,37.9c-0.1,1-0.7,1.8-1.6,2c-1.2,0.3-2.4-0.6-2.7-1.9
	c-0.2-0.7-0.1-1.3,0.2-1.9c0.4-1,2-3.1,2.6-2.8C57.9,34,58.4,36.2,58.1,37.9z M48.6,23.2c-28.5,0-44-6.1-44-9.3
	c0-3.1,15.5-9.3,44-9.3s44,6.1,44,9.3C92.6,17,77.1,23.2,48.6,23.2z"/>
</svg>
