<svg id="Layer_1" data-name="Layer 1" xmlns="http://www.w3.org/2000/svg" viewBox="0 0 174.54 152.15"><defs><style>.cls-1{fill:#c1c86e;}.cls-2{fill:#fff;}.cls-3{fill:#e5643c;}.cls-4{fill:#f9d008;}.cls-5{fill:#459fdd;}</style></defs><title>house</title><path class="cls-1" d="M19.21,80.45h137.3a0,0,0,0,1,0,0v61.9a9.8,9.8,0,0,1-9.8,9.8H29a9.79,9.79,0,0,1-9.79-9.79V80.45A0,0,0,0,1,19.21,80.45Z"/><polygon class="cls-1" points="87.86 21.04 19.21 80.45 156.51 80.45 87.86 21.04"/><path class="cls-2" d="M76.56,98H99.21a4.94,4.94,0,0,1,4.94,4.94v49.2a0,0,0,0,1,0,0H71.57a0,0,0,0,1,0,0V103A5,5,0,0,1,76.56,98Z"/><path class="cls-3" d="M78.71,101.3H97.46a3.28,3.28,0,0,1,3.28,3.28v47.57a0,0,0,0,1,0,0H75a0,0,0,0,1,0,0V105A3.74,3.74,0,0,1,78.71,101.3Z"/><polygon class="cls-2" points="80.48 55 80.48 55 80.48 55 80.48 55 80.48 55"/><ellipse class="cls-3" cx="87.86" cy="65.22" rx="13.69" ry="14.47"/><path class="cls-2" d="M87.86,80.69c-8.1,0-14.69-6.94-14.69-15.47s6.59-15.48,14.69-15.48,14.69,6.95,14.69,15.48S96,80.69,87.86,80.69Zm0-28.95c-7,0-12.69,6-12.69,13.48s5.69,13.47,12.69,13.47,12.69-6,12.69-13.47S94.86,51.74,87.86,51.74Z"/><rect class="cls-2" x="86.86" y="50.74" width="2" height="28.94"/><rect class="cls-2" x="74.17" y="64.22" width="27.38" height="2"/><path class="cls-4" d="M8.81,84.41,92.33,12.12a4.17,4.17,0,0,0,.53-5.65L87.85,0,1.39,74.83a4.17,4.17,0,0,0-.53,5.65l2.61,3.36A3.66,3.66,0,0,0,8.81,84.41Z"/><path class="cls-4" d="M173.06,73.53,88.1,0,83.23,6.29a4.42,4.42,0,0,0,.57,6l81.85,70.84a3.86,3.86,0,0,0,5.65-.6l2.33-3A4.42,4.42,0,0,0,173.06,73.53Z"/><polygon class="cls-5" points="134.89 13.18 109.94 13.77 134.34 34.88 134.89 13.18"/></svg>