<svg id="Layer_1" data-name="Layer 1" xmlns="http://www.w3.org/2000/svg" xmlns:xlink="http://www.w3.org/1999/xlink" viewBox="0 0 174.83 53.48"><defs><style>.cls-1{fill:url(#linear-gradient);}.cls-2{fill:#cca63b;}</style><linearGradient id="linear-gradient" x1="98.71" y1="145.91" x2="54.57" y2="120.42" gradientUnits="userSpaceOnUse"><stop offset="0" stop-color="#fff"/><stop offset="0" stop-color="#cca63b"/><stop offset="0.56" stop-color="#897130"/><stop offset="1"/></linearGradient></defs><title>petpet</title><path class="cls-1" d="M63.5,132.23a17.28,17.28,0,0,0,3.72,8.33,15.94,15.94,0,0,0,7.83,4.78,29.16,29.16,0,0,0,5.19.95q2.78.26,6.91.26l-.06,15H89.7c0-1.31,0-3.73,0-7.26s0-9,0-16.39q0-3.52,0-8.64c0-3.42,0-4.67,0-8.84,0-.93-2-2.82-2.61-3.39a10.53,10.53,0,0,0-2.76-1.5c-3.06-1.58-3.46-2.5-6.38-3.4-2.41-.74-14.63-4.89-16.31-3.78-1.84,1.24.53,14.42.79,16.52C62.71,127.11,63,129.66,63.5,132.23Zm3.27.14c0-2.49-.62-4.74,0-6.79s.54-6.44,2.65-7.41c1.41-.65,4.17.91,6.16.94,2.21,0,1.73.45,4.27,1.28a35.44,35.44,0,0,1,3.68,2.07,33.42,33.42,0,0,1,1.9,4.47.81.81,0,0,1-.37,1c-7.21,3.84-20,13.14,2,6.14,3.55-1.13,0-1.17,0,0,0,1.61,0,3.67,0,6.19s0,3.93,0,4.24H85.19a42.69,42.69,0,0,1-6.67-.49,19.59,19.59,0,0,1-5.2-1.53,12.13,12.13,0,0,1-4.79-4A10.47,10.47,0,0,1,66.77,132.37Z" transform="translate(-60.94 -108.14)"/><path class="cls-2" d="M121.5,143.19H97.43a21.08,21.08,0,0,0,1.23,7.69,13.47,13.47,0,0,0,4.77,5.74,13.7,13.7,0,0,0,4.68,2.19,22.67,22.67,0,0,0,6,.75c.76,0,1.58,0,2.45-.05l2-.08-.39,2c-.24,0-.67,0-1.29.07s-1.61.06-3,.06a23.71,23.71,0,0,1-8.13-1.3,16,16,0,0,1-6.06-3.82,16.54,16.54,0,0,1-3.46-5.38A17.09,17.09,0,0,1,95,144.59a21.16,21.16,0,0,1,.91-6.67,16.78,16.78,0,0,1,3.2-5.43,12.87,12.87,0,0,1,4.43-3.44,13,13,0,0,1,5.55-1.19,12.71,12.71,0,0,1,4.91.9,10.47,10.47,0,0,1,3.76,2.62,13.53,13.53,0,0,1,2.74,4.94A22.67,22.67,0,0,1,121.5,143.19Zm-2.42-1.86q-.52-5.91-3.18-8.71a9.07,9.07,0,0,0-6.9-2.8,10.33,10.33,0,0,0-7.37,2.91q-3.06,2.93-4.11,8.6Z" transform="translate(-60.94 -108.14)"/><path class="cls-2" d="M145.3,159.53l-.19,2-1.05,0-1.27,0q-5.83,0-8.79-2.85t-2.95-8.69c0-2.7,0-5.84,0-9.44s0-6.94,0-10H125.6v-2h5.61V121h2.32v7.63h12v2h-12c0,.65,0,2,0,3.94s0,4,0,5.91c0,2.19,0,3.91,0,5.15s0,2.46,0,3.65q0,5.38,2.17,7.85c1.44,1.64,4.05,2.46,7.81,2.46.3,0,.63,0,1,0Z" transform="translate(-60.94 -108.14)"/><path class="cls-2" d="M181.56,132.14c-.74,2.87-2.64,3.49-4.65,5.42-2.18,2.1-4.59,4.45-7.83,5.78-1.61.46-3.34,1.77-5.19,1.95s-4.15,1.26-6.91,1.26l.07,15h-2.61q0-2,0-7.26t0-16.39q0-3.52,0-8.64t0-11.38c.89,0,1.74,0,2.54,0h2a24.14,24.14,0,0,1,9.48,2.33,24.75,24.75,0,0,1,5.53,3.21c1.88,1.52,3.48,2.39,4.46,4.32S182.19,129.68,181.56,132.14Zm-3.4-.06c.19-2.56-1.27-2.72-2.68-4.22s-2.83-1.86-4.94-2.84a16.42,16.42,0,0,0-4.23-1.58l-2.84-.6a9,9,0,0,0-1.92-.52h-1.78c0,.32-1.5-.49-1.52,3.23s-.41,5.15-.07,6.87.13.63.14,3.15.57,4.62,1.25,4.91c.18,0,1.65.13,2.12.13s2.38-.13,2.51-.13c2.43,0,1,.24,2.94-.39a10,10,0,0,0,3.77-2c1.38-1,2.56-1.41,4.77-3.13S178,134.46,178.16,132.08Z" transform="translate(-60.94 -108.14)"/><path class="cls-2" d="M211.71,143.19H187.64a20.86,20.86,0,0,0,1.24,7.69,13.37,13.37,0,0,0,4.76,5.74,13.7,13.7,0,0,0,4.68,2.19,22.72,22.72,0,0,0,6,.75c.76,0,1.58,0,2.45-.05l2-.08-.39,2c-.24,0-.67,0-1.29.07s-1.61.06-3,.06a23.65,23.65,0,0,1-8.12-1.3,16.08,16.08,0,0,1-6.07-3.82,16.54,16.54,0,0,1-3.46-5.38,17.28,17.28,0,0,1-1.27-6.52,21.45,21.45,0,0,1,.91-6.67,16.78,16.78,0,0,1,3.2-5.43,13.29,13.29,0,0,1,14.89-3.73,10.51,10.51,0,0,1,3.77,2.62,13.83,13.83,0,0,1,2.74,4.94A22.69,22.69,0,0,1,211.71,143.19Zm-2.42-1.86q-.51-5.91-3.18-8.71a9.06,9.06,0,0,0-6.89-2.8,10.32,10.32,0,0,0-7.37,2.91q-3.07,2.93-4.11,8.6Z" transform="translate(-60.94 -108.14)"/><path class="cls-2" d="M235.52,159.53l-.2,2-1,0-1.27,0q-5.85,0-8.79-2.85t-3-8.69c0-2.7,0-5.84,0-9.44s0-6.94,0-10h-5.51v-2h5.61V121h2.31v7.63h12v2h-12c0,.65,0,2,0,3.94s0,4,0,5.91c0,2.19,0,3.91,0,5.15s0,2.46,0,3.65q0,5.38,2.17,7.85c1.44,1.64,4.05,2.46,7.81,2.46.3,0,.63,0,1,0Z" transform="translate(-60.94 -108.14)"/></svg>