<?xml version="1.0" encoding="utf-8"?>
<!-- Generator: Adobe Illustrator 22.0.1, SVG Export Plug-In . SVG Version: 6.00 Build 0)  -->
<svg version="1.1" id="Layer_1" xmlns="http://www.w3.org/2000/svg" xmlns:xlink="http://www.w3.org/1999/xlink" x="0px" y="0px"
	 viewBox="0 0 738.8 738.8" style="enable-background:new 0 0 738.8 738.8;" xml:space="preserve">
<path d="M329.7,0.6C172.8,2.3,5.9,168.1,0.1,324.4c-1.1,28.7,9.3,47.8,32.6,63.3c42.9,28.4,90.4,44.7,139.9,56.6
	c62.9,15.1,127.1,25.7,186,54.9c75,37.3,122,94.6,127,180.3c1.9,33.1,16.3,38.3,42.6,25.6c78.2-37.8,136.7-95.7,175.1-173.6
	c13.5-27.3,11.4-43.6-25.6-45.8c-81.5-4.7-138-48.8-175.1-119.8c-26.7-51-39-106.6-51.4-162.2c-13.4-60.3-29-119.8-64.9-171.9
	C371.6,10.6,354.4-3,329.7,0.6z"/>
<path d="M424,2.2c55.5,86.8,67.2,178.5,90.3,266.5c8.1,30.7,18.8,60.4,35.5,87.6c28,45.4,66.9,75.6,120.5,84
	c44.2,6.9,65.1-10.7,67.8-55.6c5.5-90.7-19.5-172.6-75.4-243.7C604.3,66.9,529.4,18.8,424,2.2z"/>
<path d="M3.2,424.5C34.6,616,190.1,743.2,374.1,738.7c58.6-1.5,77-24.8,63-81.1c-21.3-85.2-87.3-120.2-163.3-141.4
	C184.5,491.2,90.5,481.5,3.2,424.5z"/>
</svg>
